<?xml version="1.0" encoding="utf-8"?>
<!-- Generator: Adobe Illustrator 16.0.0, SVG Export Plug-In . SVG Version: 6.00 Build 0)  -->
<!DOCTYPE svg PUBLIC "-//W3C//DTD SVG 1.1//EN" "http://www.w3.org/Graphics/SVG/1.1/DTD/svg11.dtd">
<svg version="1.1" xmlns="http://www.w3.org/2000/svg" xmlns:xlink="http://www.w3.org/1999/xlink" x="0px" y="0px"
	 width="294.635px" height="109.945px" viewBox="0 0 294.635 109.945" enable-background="new 0 0 294.635 109.945"
	 xml:space="preserve">
<g id="Layer_1">
	<path fill="#454545" d="M8.046,8.378c0-0.611-0.056-1.136-0.167-1.572C7.768,6.368,7.573,6.011,7.295,5.734
		C7.017,5.458,6.631,5.252,6.141,5.122C5.649,4.991,5.023,4.925,4.26,4.925c-1.046,0-2.388,0.11-4.022,0.327L0,3.308
		C1.444,3.06,3.015,2.804,4.713,2.543C6.411,2.28,8.16,2.04,9.96,1.821c1.802-0.218,3.611-0.397,5.427-0.535
		c1.817-0.139,3.575-0.208,5.272-0.208c1.38,0,2.737,0.065,4.07,0.196c1.334,0.132,2.596,0.347,3.785,0.647
		c1.191,0.298,2.285,0.699,3.286,1.2c1,0.504,1.865,1.127,2.594,1.87c0.731,0.744,1.302,1.621,1.714,2.633
		c0.413,1.014,0.619,2.175,0.619,3.488c0,1.88-0.367,3.551-1.106,5.017c-0.737,1.463-1.734,2.739-2.987,3.824
		c-1.252,1.086-2.698,1.997-4.331,2.733c-1.635,0.736-3.357,1.323-5.167,1.759v0.197c2.38,0.161,4.578,0.525,6.594,1.093
		c2.014,0.568,3.761,1.377,5.236,2.427c1.478,1.048,2.631,2.346,3.464,3.89c0.834,1.544,1.249,3.374,1.249,5.487
		c0,1.778-0.267,3.379-0.797,4.808c-0.532,1.428-1.267,2.697-2.202,3.803c-0.937,1.108-2.043,2.055-3.32,2.842
		c-1.277,0.787-2.662,1.437-4.154,1.945c-1.491,0.51-3.061,0.885-4.713,1.127c-1.649,0.24-3.316,0.36-4.999,0.36
		c-1.394,0-2.731-0.074-4.009-0.219c-1.278-0.146-2.639-0.328-4.083-0.547l-4.617,0.503l-0.427-0.044
		c0.205-1.924,0.393-4,0.557-6.229c0.168-2.231,0.312-4.562,0.429-6.996c0.12-2.434,0.227-4.932,0.322-7.497
		c0.096-2.566,0.17-5.149,0.227-7.75c0.054-2.603,0.096-5.188,0.117-7.76C8.033,13.314,8.046,10.813,8.046,8.378z M12.472,49.08
		c1.19,0.277,2.325,0.467,3.405,0.569c1.079,0.102,2.165,0.152,3.26,0.152c1.967,0,3.808-0.221,5.523-0.665
		c1.713-0.445,3.2-1.145,4.463-2.099c1.26-0.955,2.252-2.18,2.972-3.672c0.725-1.494,1.085-3.283,1.085-5.366
		c0-1.938-0.365-3.639-1.095-5.105c-0.729-1.463-1.789-2.684-3.177-3.661c-1.39-0.976-3.098-1.708-5.13-2.197
		c-2.03-0.487-4.348-0.731-6.95-0.731c-0.509,0-1.028,0.011-1.558,0.031c-0.533,0.024-1.068,0.048-1.608,0.078
		c-0.031,0.888-0.072,1.928-0.118,3.114c-0.049,1.188-0.104,2.459-0.167,3.815s-0.132,2.754-0.201,4.197
		c-0.074,1.442-0.147,2.855-0.228,4.24c-0.081,1.386-0.157,2.703-0.237,3.957S12.553,48.104,12.472,49.08z M14.258,3.919
		c-0.016,0.948-0.04,2.11-0.073,3.485c-0.031,1.379-0.07,2.924-0.118,4.635c-0.048,1.712-0.101,3.575-0.155,5.585
		c-0.056,2.012-0.117,4.132-0.18,6.361c1.38-0.029,2.75-0.135,4.108-0.317c1.355-0.183,2.649-0.456,3.877-0.82
		c1.232-0.363,2.369-0.842,3.417-1.431c1.046-0.591,1.955-1.302,2.724-2.133c0.771-0.83,1.374-1.802,1.809-2.918
		c0.437-1.114,0.655-2.385,0.655-3.813c0-1.677-0.293-3.089-0.881-4.241c-0.586-1.15-1.392-2.076-2.414-2.776
		c-1.024-0.699-2.222-1.202-3.596-1.508C22.06,3.724,20.589,3.57,19.017,3.57c-0.761,0-1.542,0.029-2.344,0.086
		C15.873,3.714,15.067,3.803,14.258,3.919z"/>
	<path fill="#454545" d="M69.121,45.037c0.097,0.042,0.218,0.104,0.37,0.185c0.149,0.081,0.289,0.168,0.417,0.261
		c0.127,0.096,0.238,0.199,0.333,0.307c0.094,0.111,0.143,0.216,0.143,0.317c0,0.058-0.024,0.118-0.072,0.176
		c-0.889,1.137-1.844,2.123-2.866,2.961c-1.026,0.837-2.089,1.538-3.19,2.099c-1.103,0.561-2.226,0.977-3.369,1.247
		c-1.143,0.268-2.271,0.404-3.38,0.404c-1.905,0-3.65-0.358-5.237-1.071c-1.586-0.714-2.951-1.691-4.094-2.93
		c-1.142-1.238-2.036-2.692-2.678-4.36s-0.963-3.457-0.963-5.366c0-1.56,0.185-3.118,0.559-4.678
		c0.374-1.561,0.913-3.047,1.618-4.46c0.707-1.413,1.568-2.728,2.583-3.944c1.015-1.218,2.172-2.273,3.464-3.171
		c1.294-0.896,2.714-1.598,4.261-2.108c1.545-0.51,3.209-0.766,4.986-0.766c1.176,0,2.294,0.146,3.357,0.437
		c1.063,0.292,1.994,0.712,2.797,1.256c0.801,0.548,1.438,1.223,1.914,2.023c0.476,0.801,0.714,1.712,0.714,2.732
		c0,1.486-0.527,2.783-1.582,3.89c-1.054,1.108-2.51,2.047-4.368,2.82c-1.856,0.773-4.042,1.395-6.559,1.869
		c-2.515,0.474-5.232,0.827-8.152,1.061v0.371c0,1.866,0.258,3.572,0.774,5.115c0.517,1.544,1.227,2.868,2.131,3.968
		c0.904,1.099,1.966,1.956,3.188,2.567c1.223,0.613,2.539,0.919,3.951,0.919c1.43,0,2.895-0.324,4.392-0.974
		C66.064,47.546,67.583,46.493,69.121,45.037z M64.647,27.484c0-0.67-0.125-1.298-0.37-1.88c-0.247-0.583-0.586-1.09-1.023-1.519
		c-0.437-0.431-0.956-0.769-1.56-1.017c-0.603-0.248-1.252-0.372-1.951-0.372c-1.031,0-1.968,0.167-2.809,0.502
		c-0.842,0.336-1.594,0.792-2.26,1.367c-0.667,0.575-1.253,1.245-1.762,2.012c-0.507,0.764-0.939,1.576-1.297,2.437
		c-0.357,0.86-0.646,1.74-0.868,2.644c-0.224,0.904-0.382,1.786-0.477,2.646c2.252-0.146,4.274-0.397,6.057-0.756
		c1.787-0.355,3.293-0.814,4.522-1.375c1.231-0.562,2.169-1.231,2.822-2.011C64.321,29.381,64.647,28.489,64.647,27.484z"/>
	<path fill="#454545" d="M94.803,29.363c0.444-0.801,0.667-1.618,0.667-2.448c0-0.568-0.108-1.105-0.321-1.607
		c-0.216-0.503-0.536-0.947-0.964-1.334c-0.429-0.386-0.965-0.691-1.606-0.918c-0.645-0.225-1.393-0.338-2.251-0.338
		c-1.237,0-2.347,0.2-3.331,0.6c-0.986,0.401-1.854,0.951-2.606,1.65c-0.754,0.7-1.398,1.509-1.93,2.427
		c-0.529,0.918-0.967,1.902-1.307,2.951c-0.341,1.05-0.593,2.124-0.752,3.225c-0.157,1.099-0.237,2.174-0.237,3.224
		c0,1.879,0.265,3.589,0.798,5.126c0.531,1.536,1.249,2.848,2.154,3.934c0.904,1.085,1.96,1.927,3.167,2.523
		c1.204,0.599,2.489,0.897,3.854,0.897c1.443,0,2.908-0.346,4.392-1.039c1.482-0.691,2.923-1.81,4.32-3.354
		c0.095,0.044,0.218,0.105,0.368,0.186c0.152,0.08,0.289,0.17,0.417,0.273c0.127,0.102,0.238,0.205,0.333,0.306
		c0.096,0.101,0.143,0.197,0.143,0.284c0,0.058-0.008,0.096-0.022,0.109l-0.048,0.088c-1.539,2.287-3.388,4-5.546,5.136
		c-2.157,1.136-4.522,1.705-7.092,1.705c-1.396,0-2.682-0.178-3.855-0.536c-1.176-0.355-2.238-0.851-3.19-1.486
		c-0.952-0.632-1.789-1.385-2.514-2.251c-0.72-0.868-1.324-1.808-1.806-2.822c-0.484-1.011-0.85-2.074-1.096-3.19
		c-0.245-1.113-0.368-2.24-0.368-3.376c0-1.53,0.181-3.064,0.547-4.6c0.364-1.538,0.9-3.017,1.607-4.438
		c0.705-1.42,1.563-2.748,2.57-3.979c1.006-1.231,2.149-2.302,3.428-3.213c1.276-0.911,2.685-1.625,4.223-2.142
		c1.54-0.519,3.182-0.776,4.928-0.776c1.3,0,2.515,0.144,3.643,0.438c1.126,0.292,2.099,0.703,2.916,1.233
		c0.815,0.533,1.459,1.174,1.926,1.924c0.469,0.751,0.703,1.585,0.703,2.503c0,0.599-0.1,1.125-0.297,1.585
		c-0.198,0.458-0.475,0.851-0.834,1.181c-0.354,0.327-0.777,0.575-1.26,0.743c-0.485,0.167-1.013,0.25-1.584,0.25
		c-0.348,0-0.709-0.031-1.081-0.098c-0.374-0.065-0.743-0.171-1.108-0.316L94.803,29.363z"/>
	<path fill="#454545" d="M124.604,29.363c0.444-0.801,0.666-1.618,0.666-2.448c0-0.568-0.108-1.105-0.32-1.607
		c-0.217-0.503-0.536-0.947-0.965-1.334c-0.429-0.386-0.964-0.691-1.607-0.918c-0.644-0.225-1.392-0.338-2.25-0.338
		c-1.237,0-2.349,0.2-3.332,0.6c-0.984,0.401-1.852,0.951-2.605,1.65c-0.755,0.7-1.397,1.509-1.93,2.427
		c-0.53,0.918-0.967,1.902-1.308,2.951c-0.342,1.05-0.592,2.124-0.75,3.225c-0.158,1.099-0.238,2.174-0.238,3.224
		c0,1.879,0.266,3.589,0.799,5.126c0.53,1.536,1.248,2.848,2.152,3.934c0.905,1.085,1.961,1.927,3.167,2.523
		c1.204,0.599,2.49,0.897,3.854,0.897c1.445,0,2.91-0.346,4.393-1.039c1.483-0.691,2.923-1.81,4.319-3.354
		c0.096,0.044,0.219,0.105,0.369,0.186c0.15,0.08,0.289,0.17,0.417,0.273c0.127,0.102,0.238,0.205,0.333,0.306
		c0.095,0.101,0.142,0.197,0.142,0.284c0,0.058-0.007,0.096-0.023,0.109l-0.046,0.088c-1.54,2.287-3.389,4-5.546,5.136
		c-2.158,1.136-4.523,1.705-7.095,1.705c-1.394,0-2.68-0.178-3.854-0.536c-1.176-0.355-2.237-0.851-3.19-1.486
		c-0.952-0.632-1.789-1.385-2.512-2.251c-0.721-0.868-1.324-1.808-1.808-2.822c-0.485-1.011-0.849-2.074-1.096-3.19
		c-0.244-1.113-0.368-2.24-0.368-3.376c0-1.53,0.182-3.064,0.547-4.6c0.365-1.538,0.901-3.017,1.608-4.438
		c0.706-1.42,1.563-2.748,2.571-3.979c1.006-1.231,2.148-2.302,3.428-3.213c1.276-0.911,2.684-1.625,4.224-2.142
		c1.539-0.519,3.181-0.776,4.927-0.776c1.301,0,2.514,0.144,3.642,0.438c1.127,0.292,2.099,0.703,2.917,1.233
		c0.814,0.533,1.458,1.174,1.926,1.924c0.469,0.751,0.703,1.585,0.703,2.503c0,0.599-0.099,1.125-0.296,1.585
		c-0.199,0.458-0.477,0.851-0.835,1.181c-0.355,0.327-0.777,0.575-1.26,0.743c-0.485,0.167-1.011,0.25-1.584,0.25
		c-0.348,0-0.71-0.031-1.083-0.098c-0.373-0.065-0.74-0.171-1.106-0.316L124.604,29.363z"/>
	<path fill="#454545" d="M154.522,29.341c0-1.15-0.205-2.149-0.618-2.994s-0.952-1.538-1.618-2.078
		c-0.667-0.538-1.422-0.938-2.262-1.202c-0.842-0.263-1.68-0.394-2.523-0.394c-1.128,0-2.08,0.109-2.857,0.329
		c-0.776,0.218-1.408,0.517-1.891,0.896c-0.484,0.378-0.835,0.826-1.047,1.343c-0.216,0.519-0.322,1.075-0.322,1.674
		c0,0.699,0.138,1.402,0.417,2.11c0.278,0.706,0.686,1.395,1.225,2.064l-0.093,0.24c-0.906,0.409-1.819,0.612-2.739,0.612
		c-0.539,0-1.042-0.076-1.511-0.23c-0.468-0.152-0.873-0.374-1.213-0.666c-0.341-0.292-0.613-0.648-0.81-1.07
		c-0.198-0.424-0.299-0.897-0.299-1.421c0-0.861,0.226-1.67,0.681-2.427c0.451-0.757,1.048-1.451,1.795-2.077
		c0.746-0.626,1.611-1.188,2.594-1.682c0.986-0.496,2-0.915,3.047-1.256c1.048-0.344,2.1-0.606,3.155-0.788
		c1.056-0.184,2.036-0.274,2.939-0.274c1.666,0,3.089,0.205,4.273,0.613c1.182,0.407,2.141,1,2.879,1.78
		c0.739,0.781,1.278,1.724,1.617,2.832c0.344,1.106,0.514,2.36,0.514,3.76c0,0.962-0.044,2.019-0.132,3.17
		c-0.087,1.15-0.187,2.356-0.297,3.616c-0.111,1.263-0.21,2.563-0.297,3.903c-0.089,1.341-0.132,2.674-0.132,4.001
		c0,2.097,0.426,3.675,1.272,4.731c0.851,1.057,1.964,1.585,3.345,1.585c1.224,0,2.586-0.416,4.095-1.246l0.69,0.939
		c-1.063,0.977-2.224,1.72-3.476,2.23c-1.254,0.511-2.57,0.765-3.95,0.765c-1.033,0-1.983-0.161-2.858-0.48
		c-0.871-0.32-1.626-0.797-2.26-1.434c-0.636-0.632-1.127-1.431-1.477-2.393s-0.523-2.076-0.523-3.345
		c0-0.378,0.013-0.757,0.038-1.136c0.021-0.378,0.072-0.778,0.154-1.202h-0.145c-0.683,1.253-1.472,2.488-2.369,3.704
		c-0.896,1.219-1.879,2.304-2.95,3.26c-1.07,0.954-2.214,1.725-3.428,2.317c-1.212,0.588-2.487,0.884-3.819,0.884
		c-1.096,0-2.096-0.174-3-0.524c-0.906-0.349-1.678-0.831-2.323-1.443c-0.64-0.611-1.142-1.337-1.497-2.175
		c-0.358-0.837-0.536-1.752-0.536-2.743c0-1.282,0.256-2.448,0.773-3.498c0.516-1.049,1.229-1.989,2.143-2.819
		c0.912-0.831,2.002-1.549,3.273-2.152c1.269-0.606,2.651-1.109,4.142-1.51c1.49-0.4,3.069-0.699,4.736-0.894
		c1.665-0.199,3.364-0.297,5.093-0.297c0.11-0.917,0.202-1.805,0.275-2.667C154.486,31.323,154.522,30.377,154.522,29.341z
		 M139.91,44.359c0,0.568,0.067,1.11,0.202,1.628c0.135,0.517,0.349,0.972,0.644,1.366c0.292,0.394,0.667,0.704,1.117,0.929
		c0.455,0.227,0.997,0.339,1.63,0.339c0.714,0,1.453-0.153,2.214-0.459c0.761-0.307,1.512-0.729,2.249-1.269
		c0.738-0.538,1.444-1.184,2.118-1.935c0.674-0.749,1.283-1.569,1.821-2.458c0.539-0.889,0.987-1.825,1.345-2.807
		c0.357-0.986,0.592-1.995,0.702-3.029c-1.175,0.03-2.342,0.099-3.499,0.207c-1.156,0.111-2.256,0.282-3.297,0.515
		c-1.04,0.232-2.001,0.538-2.89,0.917c-0.891,0.379-1.655,0.849-2.298,1.41c-0.642,0.562-1.146,1.223-1.51,1.99
		C140.091,42.466,139.91,43.353,139.91,44.359z"/>
	<path fill="#454545" d="M96.388,65.332c0-0.612-0.057-1.137-0.167-1.575c-0.111-0.438-0.305-0.794-0.583-1.07
		c-0.277-0.277-0.663-0.48-1.153-0.612c-0.492-0.131-1.119-0.196-1.882-0.196c-1.046,0-2.388,0.109-4.021,0.328l-0.239-1.946
		c1.443-0.248,3.015-0.502,4.713-0.765c1.699-0.263,3.447-0.503,5.249-0.721c1.8-0.217,3.61-0.397,5.425-0.536
		c1.817-0.137,3.575-0.208,5.273-0.208c1.38,0,2.737,0.065,4.071,0.198c1.333,0.13,2.594,0.346,3.783,0.645
		c1.192,0.298,2.286,0.698,3.287,1.201c0.999,0.504,1.863,1.127,2.594,1.87c0.729,0.743,1.3,1.622,1.712,2.634
		c0.414,1.012,0.62,2.175,0.62,3.487c0,1.879-0.369,3.55-1.108,5.016c-0.736,1.464-1.734,2.739-2.988,3.826
		c-1.252,1.086-2.697,1.996-4.331,2.732c-1.633,0.735-3.356,1.322-5.166,1.759v0.196c2.38,0.162,4.58,0.524,6.595,1.093
		c2.014,0.568,3.76,1.378,5.235,2.426c1.476,1.051,2.631,2.348,3.463,3.892c0.833,1.546,1.25,3.375,1.25,5.486
		c0,1.778-0.267,3.381-0.796,4.811c-0.533,1.428-1.266,2.695-2.203,3.804c-0.937,1.106-2.043,2.054-3.319,2.84
		c-1.279,0.786-2.665,1.436-4.156,1.946c-1.489,0.509-3.061,0.883-4.711,1.127c-1.653,0.238-3.319,0.359-5,0.359
		c-1.396,0-2.731-0.072-4.012-0.219c-1.276-0.146-2.636-0.327-4.08-0.547l-4.618,0.503l-0.429-0.043
		c0.207-1.924,0.396-4.001,0.56-6.229c0.167-2.23,0.31-4.562,0.427-6.996c0.122-2.434,0.228-4.933,0.324-7.496
		c0.095-2.565,0.17-5.149,0.227-7.749c0.053-2.603,0.095-5.188,0.118-7.761C96.376,70.268,96.388,67.766,96.388,65.332z
		 M100.815,106.032c1.189,0.276,2.324,0.466,3.404,0.568s2.165,0.153,3.26,0.153c1.967,0,3.808-0.223,5.522-0.667
		s3.202-1.143,4.464-2.098c1.26-0.957,2.253-2.18,2.974-3.671c0.723-1.495,1.085-3.284,1.085-5.368c0-1.938-0.366-3.64-1.096-5.104
		c-0.73-1.465-1.79-2.685-3.178-3.661c-1.388-0.976-3.098-1.708-5.128-2.198c-2.032-0.486-4.348-0.731-6.951-0.731
		c-0.508,0-1.028,0.012-1.558,0.033c-0.532,0.023-1.069,0.047-1.608,0.077c-0.031,0.889-0.07,1.927-0.118,3.114
		c-0.049,1.188-0.104,2.459-0.167,3.814c-0.063,1.355-0.131,2.755-0.202,4.196c-0.073,1.443-0.146,2.856-0.228,4.242
		c-0.079,1.385-0.157,2.701-0.237,3.955C100.972,103.941,100.896,105.057,100.815,106.032z M102.6,60.872
		c-0.016,0.948-0.04,2.109-0.072,3.486c-0.032,1.379-0.071,2.922-0.119,4.634c-0.046,1.712-0.099,3.574-0.154,5.586
		c-0.056,2.012-0.116,4.131-0.179,6.36c1.38-0.029,2.749-0.135,4.106-0.317c1.355-0.182,2.648-0.456,3.877-0.82
		c1.231-0.363,2.369-0.841,3.418-1.43c1.046-0.591,1.955-1.302,2.725-2.132c0.769-0.831,1.373-1.803,1.808-2.919
		c0.438-1.114,0.656-2.387,0.656-3.814c0-1.674-0.293-3.089-0.881-4.239c-0.587-1.152-1.393-2.077-2.415-2.776
		c-1.025-0.7-2.222-1.201-3.595-1.509c-1.373-0.306-2.844-0.46-4.416-0.46c-0.761,0-1.542,0.03-2.344,0.089
		C104.215,60.668,103.408,60.755,102.6,60.872z"/>
	<path fill="#454545" d="M133.114,96.196c0-1.474,0.167-2.965,0.5-4.482c0.332-1.516,0.823-2.981,1.475-4.404
		c0.652-1.419,1.457-2.754,2.417-3.998c0.959-1.248,2.067-2.337,3.319-3.269c1.254-0.934,2.652-1.67,4.19-2.208
		c1.538-0.539,3.213-0.809,5.023-0.809c2.03,0,3.827,0.394,5.39,1.18c1.563,0.786,2.877,1.827,3.939,3.114
		c1.063,1.291,1.868,2.758,2.417,4.405c0.547,1.647,0.82,3.33,0.82,5.05c0,1.473-0.165,2.965-0.499,4.479
		c-0.335,1.518-0.83,2.984-1.489,4.406c-0.657,1.42-1.467,2.754-2.427,3.998c-0.96,1.248-2.067,2.336-3.321,3.27
		c-1.252,0.932-2.65,1.669-4.188,2.207c-1.539,0.539-3.214,0.81-5.023,0.81c-2.031,0-3.828-0.394-5.39-1.181
		c-1.563-0.787-2.874-1.826-3.93-3.114c-1.053-1.29-1.855-2.757-2.401-4.404C133.387,99.599,133.114,97.915,133.114,96.196z
		 M138.802,94.119c0,0.992,0.084,1.997,0.25,3.018c0.169,1.019,0.426,2.003,0.775,2.949c0.348,0.948,0.78,1.833,1.297,2.655
		c0.516,0.825,1.125,1.542,1.831,2.154c0.707,0.612,1.5,1.092,2.38,1.443c0.882,0.35,1.854,0.524,2.915,0.524
		c1.159,0,2.178-0.23,3.061-0.688c0.879-0.46,1.641-1.069,2.284-1.827c0.643-0.757,1.174-1.625,1.595-2.601
		c0.42-0.976,0.759-1.985,1.012-3.028c0.253-1.042,0.433-2.073,0.536-3.093c0.103-1.02,0.155-1.959,0.155-2.819
		c0-1.005-0.085-2.015-0.251-3.027c-0.168-1.012-0.427-1.99-0.774-2.928c-0.349-0.942-0.78-1.823-1.298-2.646
		c-0.515-0.823-1.125-1.537-1.831-2.143c-0.706-0.604-1.501-1.082-2.379-1.431c-0.884-0.351-1.855-0.524-2.918-0.524
		c-1.157,0-2.177,0.226-3.059,0.677c-0.88,0.452-1.642,1.056-2.285,1.815c-0.642,0.757-1.172,1.624-1.595,2.601
		c-0.419,0.977-0.758,1.981-1.012,3.017c-0.253,1.035-0.433,2.065-0.535,3.093C138.855,92.337,138.802,93.274,138.802,94.119z"/>
	<path fill="#454545" d="M179.599,50.096c-0.316,2.478-0.629,5.017-0.941,7.617c-0.307,2.603-0.601,5.231-0.877,7.892
		c-0.279,2.658-0.537,5.328-0.774,8.011c-0.237,2.681-0.445,5.322-0.619,7.923c-0.177,2.603-0.309,5.156-0.405,7.663
		c-0.096,2.504-0.143,4.908-0.143,7.212c0,1.443,0.02,2.681,0.057,3.717c0.042,1.034,0.104,1.91,0.192,2.622
		c0.089,0.714,0.208,1.29,0.358,1.728c0.151,0.438,0.336,0.772,0.56,1.006c0.222,0.232,0.483,0.389,0.784,0.471
		c0.302,0.079,0.658,0.119,1.072,0.119c0.761,0,1.582-0.105,2.463-0.318c0.883-0.21,1.774-0.505,2.678-0.884l0.453,1.137
		c-0.571,0.423-1.29,0.853-2.154,1.289c-0.864,0.438-1.774,0.837-2.727,1.203c-0.951,0.365-1.884,0.657-2.796,0.884
		c-0.913,0.227-1.703,0.34-2.367,0.34c-0.857,0-1.537-0.2-2.037-0.602c-0.498-0.4-0.88-1.052-1.144-1.956
		c-0.26-0.904-0.428-2.079-0.498-3.529c-0.072-1.45-0.108-3.217-0.108-5.301c0-0.758,0.025-1.842,0.073-3.247
		c0.047-1.405,0.114-3.041,0.201-4.907c0.089-1.866,0.188-3.906,0.299-6.12c0.11-2.215,0.228-4.507,0.355-6.873
		c0.128-2.369,0.261-4.76,0.404-7.172c0.145-2.411,0.285-4.743,0.43-6.993c0.143-2.253,0.277-4.376,0.405-6.374
		c0.127-1.997,0.246-3.759,0.355-5.289c0.016-0.35,0.128-0.652,0.335-0.908c0.204-0.254,0.471-0.458,0.794-0.613
		c0.327-0.151,0.693-0.264,1.097-0.338c0.405-0.073,0.813-0.109,1.228-0.109C177.553,49.396,178.552,49.628,179.599,50.096z"/>
	<path fill="#454545" d="M221.373,50.096c-0.572,3.702-1.119,7.489-1.643,11.367c-0.525,3.876-0.985,7.738-1.381,11.586
		c-0.396,3.845-0.713,7.636-0.951,11.365c-0.239,3.729-0.358,7.309-0.358,10.733c0,1.646,0.021,3.059,0.061,4.239
		s0.104,2.179,0.19,2.995c0.087,0.815,0.205,1.465,0.354,1.944c0.152,0.482,0.344,0.854,0.572,1.116
		c0.23,0.262,0.497,0.433,0.799,0.515c0.3,0.079,0.657,0.119,1.07,0.119c0.763,0,1.584-0.105,2.463-0.318
		c0.882-0.21,1.774-0.505,2.679-0.884l0.451,1.137c-0.57,0.423-1.288,0.853-2.151,1.289c-0.865,0.438-1.774,0.837-2.728,1.203
		c-0.952,0.365-1.886,0.657-2.795,0.884c-0.914,0.227-1.703,0.34-2.37,0.34c-0.491,0-0.921-0.052-1.285-0.155
		c-0.364-0.099-0.678-0.278-0.941-0.533c-0.26-0.255-0.484-0.595-0.665-1.017c-0.181-0.423-0.33-0.963-0.439-1.617
		c-0.144-0.875-0.258-1.895-0.345-3.061c-0.087-1.167-0.131-2.434-0.131-3.804c0-1.457,0.057-2.939,0.177-4.448
		c0.117-1.508,0.313-3.013,0.584-4.515l-0.215-0.043c-1.223,2.959-2.552,5.631-3.985,8.022c-1.437,2.391-2.917,4.43-4.441,6.12
		c-1.521,1.69-3.054,2.992-4.591,3.903c-1.541,0.91-3.017,1.365-4.43,1.365c-1.429,0-2.657-0.332-3.69-0.996
		c-1.03-0.663-1.876-1.537-2.535-2.623c-0.658-1.086-1.144-2.331-1.461-3.735c-0.32-1.407-0.478-2.854-0.478-4.341
		c0-1.791,0.214-3.558,0.643-5.302c0.429-1.74,1.043-3.391,1.844-4.949c0.801-1.56,1.766-3.007,2.893-4.34
		c1.129-1.333,2.39-2.479,3.785-3.442c1.396-0.962,2.907-1.715,4.533-2.263c1.628-0.546,3.337-0.818,5.131-0.818
		c1.254,0,2.503,0.145,3.749,0.437c1.246,0.291,2.488,0.772,3.725,1.443c0.08-2.478,0.179-4.996,0.297-7.552
		c0.121-2.559,0.259-5.047,0.417-7.466c0.157-2.418,0.332-4.708,0.523-6.863c0.19-2.157,0.396-4.081,0.619-5.771
		c0.047-0.35,0.175-0.652,0.382-0.908c0.204-0.254,0.466-0.458,0.784-0.613c0.318-0.151,0.676-0.264,1.071-0.338
		c0.396-0.073,0.801-0.109,1.215-0.109C219.325,49.396,220.324,49.628,221.373,50.096z M212.827,80.896
		c-2.142-0.935-4.269-1.399-6.379-1.399c-1.538,0-2.956,0.226-4.25,0.678c-1.294,0.451-2.453,1.074-3.484,1.869
		c-1.033,0.793-1.938,1.726-2.715,2.797c-0.777,1.07-1.419,2.223-1.927,3.455c-0.51,1.231-0.896,2.51-1.154,3.835
		c-0.264,1.326-0.394,2.645-0.394,3.956c0,0.468,0.023,1.003,0.071,1.607c0.047,0.604,0.139,1.23,0.274,1.88
		c0.134,0.649,0.313,1.283,0.535,1.9c0.222,0.621,0.499,1.179,0.833,1.673c0.332,0.496,0.733,0.893,1.203,1.192
		c0.467,0.299,1.018,0.448,1.652,0.448c1.144,0,2.31-0.395,3.501-1.182c1.188-0.786,2.35-1.827,3.483-3.126
		c1.137-1.296,2.208-2.784,3.215-4.458c1.007-1.677,1.905-3.398,2.688-5.171c0.786-1.769,1.43-3.518,1.93-5.245
		C212.41,83.879,212.716,82.309,212.827,80.896z"/>
	<path fill="#454545" d="M237.866,81.397c0,0.991-0.035,2.051-0.106,3.181s-0.158,2.276-0.263,3.443
		c-0.103,1.166-0.213,2.328-0.332,3.483c-0.117,1.161-0.229,2.258-0.334,3.292c-0.101,1.035-0.191,1.984-0.261,2.854
		c-0.073,0.866-0.107,1.593-0.107,2.174c0,1.734,0.356,3.003,1.071,3.804c0.714,0.801,1.665,1.202,2.855,1.202
		c1.351,0,2.73-0.667,4.143-2.001c1.412-1.332,2.76-3.281,4.045-5.846c1.286-2.565,2.381-5.448,3.286-8.645
		c0.904-3.2,1.483-6.648,1.736-10.35l5.046-0.569l0.381,0.021c-0.144,1.384-0.271,2.854-0.392,4.403
		c-0.118,1.553-0.228,3.104-0.32,4.656c-0.098,1.552-0.168,3.07-0.216,4.559c-0.046,1.486-0.07,2.854-0.07,4.109
		c0,2.375,0.151,4.317,0.45,5.823c0.302,1.511,0.69,2.697,1.169,3.565c0.475,0.866,1.019,1.464,1.63,1.793
		c0.609,0.325,1.225,0.49,1.844,0.49c0.365,0,0.727-0.044,1.082-0.13c0.358-0.088,0.693-0.193,1.014-0.318
		c0.316-0.123,0.606-0.258,0.868-0.405c0.261-0.144,0.488-0.276,0.677-0.393l0.788,1.006c-0.462,0.438-0.986,0.848-1.572,1.236
		c-0.586,0.386-1.206,0.72-1.857,1.005c-0.649,0.283-1.333,0.506-2.047,0.665c-0.713,0.161-1.438,0.24-2.165,0.24
		c-0.921,0-1.813-0.167-2.677-0.501c-0.865-0.334-1.633-0.898-2.299-1.684c-0.667-0.787-1.204-1.837-1.604-3.147
		c-0.408-1.311-0.608-2.943-0.608-4.896c0-0.627,0.015-1.262,0.048-1.902c0.031-0.642,0.079-1.317,0.143-2.033
		c0.062-0.713,0.146-1.481,0.25-2.304c0.104-0.825,0.225-1.732,0.368-2.722l-0.261-0.045c-1.08,3.657-2.25,6.724-3.511,9.202
		c-1.263,2.479-2.556,4.475-3.882,5.989c-1.324,1.517-2.652,2.597-3.984,3.245c-1.333,0.648-2.604,0.974-3.81,0.974
		c-0.904,0-1.773-0.143-2.605-0.425c-0.834-0.286-1.576-0.751-2.227-1.399c-0.65-0.65-1.17-1.505-1.56-2.569
		c-0.387-1.063-0.582-2.374-0.582-3.935c0-1.02,0.063-2.204,0.191-3.551c0.127-1.349,0.264-2.784,0.415-4.308
		c0.149-1.522,0.29-3.097,0.417-4.721c0.127-1.625,0.189-3.231,0.189-4.82c0-0.642-0.023-1.194-0.07-1.661
		c-0.049-0.468-0.15-0.852-0.31-1.158c-0.158-0.307-0.395-0.532-0.701-0.678c-0.311-0.146-0.734-0.22-1.275-0.22
		c-0.537,0-1.241,0.074-2.106,0.22c-0.864,0.146-1.772,0.342-2.725,0.59l-0.356-1.573c1.3-0.423,2.512-0.791,3.629-1.104
		c1.121-0.313,2.119-0.572,2.998-0.775c0.884-0.205,1.628-0.358,2.237-0.459c0.612-0.103,1.061-0.154,1.347-0.154
		c0.571,0,1.039,0.096,1.404,0.285c0.365,0.188,0.658,0.466,0.881,0.83c0.222,0.364,0.376,0.801,0.462,1.313
		C237.823,80.16,237.866,80.741,237.866,81.397z"/>
	<path fill="#454545" d="M288.375,86.315c0.443-0.801,0.667-1.616,0.667-2.448c0-0.567-0.106-1.103-0.322-1.605
		c-0.214-0.504-0.535-0.947-0.964-1.336c-0.429-0.385-0.964-0.69-1.607-0.918c-0.641-0.225-1.392-0.338-2.248-0.338
		c-1.237,0-2.348,0.202-3.333,0.602c-0.983,0.401-1.852,0.951-2.607,1.65c-0.753,0.7-1.395,1.509-1.925,2.427
		c-0.533,0.918-0.969,1.901-1.312,2.949c-0.339,1.052-0.592,2.126-0.749,3.226c-0.159,1.101-0.237,2.175-0.237,3.225
		c0,1.879,0.266,3.588,0.795,5.127c0.534,1.535,1.252,2.847,2.155,3.933c0.905,1.085,1.961,1.928,3.166,2.525
		c1.205,0.597,2.49,0.896,3.856,0.896c1.443,0,2.907-0.348,4.391-1.04c1.483-0.691,2.926-1.81,4.32-3.354
		c0.096,0.044,0.221,0.105,0.371,0.187c0.148,0.08,0.287,0.172,0.415,0.272c0.128,0.102,0.238,0.205,0.333,0.307
		c0.096,0.102,0.144,0.196,0.144,0.284c0,0.059-0.009,0.094-0.024,0.11l-0.048,0.086c-1.538,2.287-3.387,4.001-5.544,5.139
		c-2.158,1.137-4.523,1.703-7.095,1.703c-1.396,0-2.681-0.179-3.855-0.536s-2.239-0.852-3.19-1.485
		c-0.952-0.634-1.79-1.384-2.51-2.251c-0.722-0.868-1.326-1.808-1.811-2.821c-0.483-1.011-0.849-2.075-1.094-3.19
		c-0.246-1.114-0.37-2.24-0.37-3.377c0-1.53,0.183-3.065,0.548-4.602c0.366-1.537,0.9-3.017,1.606-4.438
		c0.707-1.42,1.564-2.746,2.57-3.979c1.009-1.231,2.15-2.302,3.429-3.211c1.277-0.913,2.687-1.626,4.224-2.144
		c1.539-0.519,3.182-0.776,4.929-0.776c1.3,0,2.515,0.146,3.641,0.438c1.127,0.291,2.098,0.703,2.916,1.234
		c0.817,0.531,1.461,1.173,1.929,1.922c0.468,0.752,0.701,1.587,0.701,2.505c0,0.598-0.1,1.125-0.298,1.585
		c-0.197,0.457-0.476,0.851-0.831,1.181c-0.359,0.327-0.778,0.574-1.264,0.742c-0.482,0.167-1.011,0.252-1.582,0.252
		c-0.347,0-0.71-0.033-1.084-0.1c-0.373-0.063-0.741-0.17-1.106-0.316L288.375,86.315z"/>
</g>
<g id="Layer_2">
	<path fill="#454545" d="M198.913,28.422c-5.045-5.437-6.478-17.265-15.923-16.767c-1.476,0.078-2.694,0.547-3.669,1.258
		c-0.495-0.141-1.047-0.017-1.371,0.57c-0.513,0.926-0.812,1.83-0.98,2.719c-0.854,2.616-0.223,5.745,2.02,7.711
		c2.996,3.327,9.985,5.546,14.348,6.236c1.539,0.559,3.156,0.827,5.009,0.424C199.333,30.359,199.538,29.093,198.913,28.422z"/>
	<path fill="#454545" d="M203.933,25.752c1.395-7.284,10.078-15.441,4.087-22.759c-0.936-1.143-2.034-1.847-3.185-2.213
		c-0.181-0.481-0.607-0.854-1.271-0.767c-1.051,0.135-1.957,0.429-2.773,0.819c-2.613,0.86-4.76,3.223-5.019,6.193
		c-0.909,4.384,1.44,11.331,3.466,15.256c0.461,1.571,1.202,3.033,2.622,4.287C202.618,27.237,203.761,26.653,203.933,25.752z"/>
	<path fill="#454545" d="M209.412,28.337c6.418-3.715,18.271-2.494,19.877-11.815c0.251-1.457,0.064-2.748-0.414-3.855
		c0.248-0.451,0.249-1.017-0.252-1.464c-0.79-0.705-1.604-1.196-2.435-1.559c-2.363-1.412-5.553-1.489-7.967,0.26
		c-3.907,2.185-7.619,8.51-9.261,12.612c-0.883,1.377-1.504,2.895-1.522,4.79C207.429,28.317,208.618,28.798,209.412,28.337z"/>
	<path fill="#454545" d="M212.012,32.48c5.993,4.371,9.667,15.703,18.841,13.406c1.434-0.358,2.539-1.053,3.36-1.938
		c0.511,0.045,1.031-0.184,1.236-0.822c0.326-1.006,0.445-1.95,0.44-2.857c0.337-2.73-0.882-5.679-3.458-7.18
		c-3.579-2.691-10.864-3.531-15.278-3.373c-1.617-0.252-3.256-0.205-4.995,0.544C211.229,30.66,211.271,31.942,212.012,32.48z"/>
	<circle fill="#454545" cx="203.253" cy="37.251" r="4.588"/>
	<path fill="#577F84" d="M199.052,28.723c-0.588-1.348-2.206-2.785-2.788-3.785c-1.089-1.88-1.884-4.08-3.59-5.516
		c-1.431-1.203-3.081-1.937-4.964-1.414c-1.54,0.426-3.18,1.398-3.874,2.891c-0.778,1.67,0.089,3.6,1.354,4.799
		c3.235,3.076,7.502,5.332,12.066,5.096c0.53-0.029,1.854-0.149,1.988-0.883C199.313,29.533,199.229,29.133,199.052,28.723z"/>
	<path fill="#577F84" d="M203.938,25.959c0.739-1.271,0.939-3.427,1.403-4.486c0.868-1.992,2.172-3.935,2.319-6.16
		c0.125-1.864-0.262-3.628-1.798-4.837c-1.257-0.99-3.008-1.735-4.622-1.412c-1.808,0.36-2.849,2.202-3.069,3.93
		c-0.563,4.428,0.143,9.204,3.035,12.744c0.336,0.41,1.217,1.405,1.889,1.08C203.44,26.649,203.715,26.345,203.938,25.959z"/>
	<path fill="#577F84" d="M209.066,28.483c1.458-0.202,3.278-1.374,4.398-1.665c2.104-0.543,4.438-0.714,6.278-1.97
		c1.547-1.054,2.695-2.445,2.7-4.399c0.004-1.6-0.49-3.438-1.74-4.509c-1.399-1.201-3.49-0.886-4.986,0.008
		c-3.832,2.287-7.156,5.789-8.159,10.248c-0.116,0.517-0.354,1.826,0.314,2.152C208.217,28.516,208.626,28.545,209.066,28.483z"/>
	<path fill="#577F84" d="M211.941,32.285c0.904,1.159,2.83,2.149,3.642,2.975c1.522,1.549,2.841,3.481,4.849,4.448
		c1.685,0.81,3.466,1.11,5.159,0.135c1.388-0.795,2.732-2.145,3.033-3.762c0.34-1.812-0.981-3.465-2.504-4.313
		c-3.899-2.172-8.592-3.297-12.954-1.935c-0.507,0.158-1.758,0.605-1.707,1.349C211.485,31.565,211.667,31.933,211.941,32.285z"/>
</g>
</svg>
